<?xml version="1.0" encoding="UTF-8"?>
<svg width="344px" height="345px" viewBox="0 0 344 345" version="1.1" xmlns="http://www.w3.org/2000/svg" xmlns:xlink="http://www.w3.org/1999/xlink">
    <title>Atom</title>
    <g id="Icons" stroke="none" stroke-width="1" fill="none" fill-rule="evenodd">
        <g transform="translate(-134.000000, -2803.000000)" id="Atom">
            <g transform="translate(134.000000, 2803.000000)">
                <path d="M73.013407,2.6866064 C106.18824,0.895535467 139.183771,0 172,0 C204.832174,0 237.664282,0.896405919 270.496323,2.68921776 C308.699378,4.77531668 339.208201,35.2833237 341.295323,73.4863222 C343.098441,106.490881 344,139.495441 344,172.5 C344,205.511425 343.098066,238.52285 341.294197,271.534276 L341.294197,271.534275 C339.20649,309.740047 308.693155,340.248892 270.487077,342.330977 C237.836179,344.110326 205.007154,345 172,345 C139.007428,345 106.01479,344.111111 73.0220864,342.333334 C34.4742283,340.256224 3.79947595,309.257162 2.12787429,270.689591 C0.709291429,237.959727 0,205.229864 0,172.5 C0,139.776865 0.708999838,107.053729 2.12699951,74.3305938 L2.12699924,74.3305938 C3.79813889,35.7657548 34.4685114,4.76760084 73.013407,2.6866064 Z" id="Rectangle" fill="#000633"></path>
                <g id="Group-4" transform="translate(64.000000, 65.000000)" fill="#FFFFFF">
                    <path d="M107.916462,43 C72.06409,43 43,72.06409 43,107.916462 C43,143.768834 72.06409,172.832924 107.916462,172.832924 C143.768834,172.832924 172.832924,143.768834 172.832924,107.916462 C172.832924,72.06409 143.768834,43 107.916462,43 Z M107.916462,49 C140.455125,49 166.832924,75.3777985 166.832924,107.916462 C166.832924,140.455125 140.455125,166.832924 107.916462,166.832924 C75.3777985,166.832924 49,140.455125 49,107.916462 C49,75.3777985 75.3777985,49 107.916462,49 Z" id="Oval" fill-rule="nonzero" opacity="0.4"></path>
                    <path d="M108,0 C48.353247,0 0,48.353247 0,108 C0,167.646753 48.353247,216 108,216 C167.646753,216 216,167.646753 216,108 C216,48.353247 167.646753,0 108,0 Z M108,6 C164.333044,6 210,51.6669555 210,108 C210,164.333044 164.333044,210 108,210 C51.6669555,210 6,164.333044 6,108 C6,51.6669555 51.6669555,6 108,6 Z" id="Oval-Copy-4" fill-rule="nonzero" opacity="0.2"></path>
                    <circle id="Oval" cx="108" cy="108" r="16"></circle>
                    <circle id="Oval-Copy-5" cx="148" cy="154" r="16"></circle>
                    <circle id="Oval-Copy-6" cx="36" cy="183" r="16"></circle>
                </g>
            </g>
        </g>
    </g>
</svg>